# xmcd CD database file
#
# Track frame offsets:
#	150
#	14333
#	28416
#	42233
#	54033
#	66689
#
# Disc length: 1082 seconds
#
# Revision: 1
# Processed by: cddbd v1.5.2PL0 Copyright (c) Steve Scherf et al.
# Submitted via: CDex 1.51
#
DISCID=4f043806
DTITLE=Exemo - An iwwerhaapt wisou
DYEAR=2011
DGENRE=Country
TTITLE0=Iwwerhaapt wisou
TTITLE1=Stell dir mol eng Welt vir
TTITLE2=De Jangli
TTITLE3=Iwwerhaapt wisou 2
TTITLE4=No vir an dowidder
TTITLE5=All Mënsch geet op d'Schueberfouer
EXTD=YEAR: 2011
EXTT0=
EXTT1=
EXTT2=
EXTT3=
EXTT4=
EXTT5=
PLAYORDER=
